<svg xmlns="http://www.w3.org/2000/svg" width="1600" height="900" viewBox="0 0 1600 900"><rect width="1600" height="900" fill="#ffffff"/><style>text{font-family:Arial,sans-serif;fill:#182536}.title{font-size:38px;font-weight:700}.sub{font-size:19px;fill:#5c6877}.axis{font-size:15px;fill:#687586}.label{font-size:17px;font-weight:700}.value{font-size:17px;font-weight:700}.legend{font-size:18px;font-weight:700}.take{font-size:23px;font-weight:700}.note{font-size:15px;fill:#687586}</style><text x="70" y="62" class="title">Качество Use Case: один вызов LLM и полный граф</text><text x="70" y="98" class="sub">Frozen DEV20 · 20 проектов × 3 повтора · отдельные F1 относительно эталонной разметки</text><rect x="1030" y="125" width="24" height="24" rx="4" fill="#8f6f32"/><text x="1066" y="144" class="legend">Один вызов LLM</text><rect x="1280" y="125" width="24" height="24" rx="4" fill="#24796f"/><text x="1316" y="144" class="legend">Полный граф</text><line x1="110" y1="680.0" x2="1540" y2="680.0" stroke="#e3e8ee"/><text x="92" y="685.0" text-anchor="end" class="axis">0.0</text><line x1="110" y1="582.0" x2="1540" y2="582.0" stroke="#e3e8ee"/><text x="92" y="587.0" text-anchor="end" class="axis">0.2</text><line x1="110" y1="484.0" x2="1540" y2="484.0" stroke="#e3e8ee"/><text x="92" y="489.0" text-anchor="end" class="axis">0.4</text><line x1="110" y1="386.0" x2="1540" y2="386.0" stroke="#e3e8ee"/><text x="92" y="391.0" text-anchor="end" class="axis">0.6</text><line x1="110" y1="288.0" x2="1540" y2="288.0" stroke="#e3e8ee"/><text x="92" y="293.0" text-anchor="end" class="axis">0.8</text><line x1="110" y1="190.0" x2="1540" y2="190.0" stroke="#e3e8ee"/><text x="92" y="195.0" text-anchor="end" class="axis">1.0</text><rect x="190.4" y="332.1" width="89.4" height="347.9" rx="5" fill="#8f6f32"/><line x1="235.1" y1="283.1" x2="235.1" y2="382.7" stroke="#162536" stroke-width="2"/><line x1="227.1" y1="283.1" x2="243.1" y2="283.1" stroke="#162536" stroke-width="2"/><line x1="227.1" y1="382.7" x2="243.1" y2="382.7" stroke="#162536" stroke-width="2"/><text x="235.1" y="318.1" text-anchor="middle" class="value">0.710</text><rect x="297.8" y="281.2" width="89.4" height="398.8" rx="5" fill="#24796f"/><line x1="342.4" y1="248.9" x2="342.4" y2="315.3" stroke="#162536" stroke-width="2"/><line x1="334.4" y1="248.9" x2="350.4" y2="248.9" stroke="#162536" stroke-width="2"/><line x1="334.4" y1="315.3" x2="350.4" y2="315.3" stroke="#162536" stroke-width="2"/><text x="342.4" y="267.2" text-anchor="middle" class="value">0.814</text><text x="288.8" y="724" text-anchor="middle" class="label">Actor F1</text><rect x="547.9" y="265.1" width="89.4" height="414.9" rx="5" fill="#8f6f32"/><line x1="592.6" y1="222.7" x2="592.6" y2="314.1" stroke="#162536" stroke-width="2"/><line x1="584.6" y1="222.7" x2="600.6" y2="222.7" stroke="#162536" stroke-width="2"/><line x1="584.6" y1="314.1" x2="600.6" y2="314.1" stroke="#162536" stroke-width="2"/><text x="592.6" y="251.1" text-anchor="middle" class="value">0.847</text><rect x="655.2" y="204.5" width="89.4" height="475.5" rx="5" fill="#24796f"/><line x1="699.9" y1="190.0" x2="699.9" y2="228.1" stroke="#162536" stroke-width="2"/><line x1="691.9" y1="190.0" x2="707.9" y2="190.0" stroke="#162536" stroke-width="2"/><line x1="691.9" y1="228.1" x2="707.9" y2="228.1" stroke="#162536" stroke-width="2"/><text x="699.9" y="190.5" text-anchor="middle" class="value">0.970</text><text x="646.2" y="724" text-anchor="middle" class="label">Use Case F1</text><rect x="905.4" y="558.0" width="89.4" height="122.0" rx="5" fill="#8f6f32"/><line x1="950.1" y1="534.6" x2="950.1" y2="582.6" stroke="#162536" stroke-width="2"/><line x1="942.1" y1="534.6" x2="958.1" y2="534.6" stroke="#162536" stroke-width="2"/><line x1="942.1" y1="582.6" x2="958.1" y2="582.6" stroke="#162536" stroke-width="2"/><text x="950.1" y="544.0" text-anchor="middle" class="value">0.249</text><rect x="1012.8" y="547.4" width="89.4" height="132.6" rx="5" fill="#24796f"/><line x1="1057.4" y1="521.4" x2="1057.4" y2="575.3" stroke="#162536" stroke-width="2"/><line x1="1049.4" y1="521.4" x2="1065.4" y2="521.4" stroke="#162536" stroke-width="2"/><line x1="1049.4" y1="575.3" x2="1065.4" y2="575.3" stroke="#162536" stroke-width="2"/><text x="1057.4" y="533.4" text-anchor="middle" class="value">0.271</text><text x="1003.8" y="724" text-anchor="middle" class="label">Milestone F1</text><rect x="1262.9" y="525.9" width="89.4" height="154.1" rx="5" fill="#8f6f32"/><line x1="1307.6" y1="456.8" x2="1307.6" y2="587.7" stroke="#162536" stroke-width="2"/><line x1="1299.6" y1="456.8" x2="1315.6" y2="456.8" stroke="#162536" stroke-width="2"/><line x1="1299.6" y1="587.7" x2="1315.6" y2="587.7" stroke="#162536" stroke-width="2"/><text x="1307.6" y="511.9" text-anchor="middle" class="value">0.314</text><rect x="1370.2" y="458.6" width="89.4" height="221.4" rx="5" fill="#24796f"/><line x1="1414.9" y1="383.1" x2="1414.9" y2="531.1" stroke="#162536" stroke-width="2"/><line x1="1406.9" y1="383.1" x2="1422.9" y2="383.1" stroke="#162536" stroke-width="2"/><line x1="1406.9" y1="531.1" x2="1422.9" y2="531.1" stroke="#162536" stroke-width="2"/><text x="1414.9" y="444.6" text-anchor="middle" class="value">0.452</text><text x="1361.2" y="724" text-anchor="middle" class="label">Branch F1</text><line x1="70" y1="770" x2="1530" y2="770" stroke="#c9d2dc"/><text x="70" y="816" class="take">Полный граф заметнее всего сохраняет границы процессов и альтернативные ветви.</text><text x="70" y="854" class="note">Среднее по 20 проектам; три повтора усреднены внутри проекта; планки — кластерный bootstrap 95% CI. Технический провал остаётся в знаменателе и получает 0.</text></svg>