<svg xmlns="http://www.w3.org/2000/svg" width="1600" height="900" viewBox="0 0 1600 900"><rect width="1600" height="900" fill="#ffffff"/><style>text{font-family:Arial,sans-serif;fill:#182536}.title{font-size:38px;font-weight:700}.sub{font-size:19px;fill:#5c6877}.axis{font-size:15px;fill:#687586}.label{font-size:17px;font-weight:700}.value{font-size:17px;font-weight:700}.legend{font-size:18px;font-weight:700}.take{font-size:23px;font-weight:700}.note{font-size:15px;fill:#687586}</style><text x="70" y="62" class="title">Трассировка и надёжность полного результата</text><text x="70" y="98" class="sub">Все показатели показаны отдельно; интегральный смысловой балл и LLM-судья не используются</text><rect x="1030" y="125" width="24" height="24" rx="4" fill="#8f6f32"/><text x="1066" y="144" class="legend">Один вызов LLM</text><rect x="1280" y="125" width="24" height="24" rx="4" fill="#24796f"/><text x="1316" y="144" class="legend">Полный граф</text><line x1="110" y1="680.0" x2="1540" y2="680.0" stroke="#e3e8ee"/><text x="92" y="685.0" text-anchor="end" class="axis">0.0</text><line x1="110" y1="582.0" x2="1540" y2="582.0" stroke="#e3e8ee"/><text x="92" y="587.0" text-anchor="end" class="axis">0.2</text><line x1="110" y1="484.0" x2="1540" y2="484.0" stroke="#e3e8ee"/><text x="92" y="489.0" text-anchor="end" class="axis">0.4</text><line x1="110" y1="386.0" x2="1540" y2="386.0" stroke="#e3e8ee"/><text x="92" y="391.0" text-anchor="end" class="axis">0.6</text><line x1="110" y1="288.0" x2="1540" y2="288.0" stroke="#e3e8ee"/><text x="92" y="293.0" text-anchor="end" class="axis">0.8</text><line x1="110" y1="190.0" x2="1540" y2="190.0" stroke="#e3e8ee"/><text x="92" y="195.0" text-anchor="end" class="axis">1.0</text><rect x="160.6" y="270.9" width="59.6" height="409.1" rx="5" fill="#8f6f32"/><line x1="190.4" y1="226.8" x2="190.4" y2="320.7" stroke="#162536" stroke-width="2"/><line x1="182.4" y1="226.8" x2="198.4" y2="226.8" stroke="#162536" stroke-width="2"/><line x1="182.4" y1="320.7" x2="198.4" y2="320.7" stroke="#162536" stroke-width="2"/><text x="190.4" y="256.9" text-anchor="middle" class="value">0.835</text><rect x="238.2" y="208.1" width="59.6" height="471.9" rx="5" fill="#24796f"/><line x1="268.0" y1="194.8" x2="268.0" y2="224.6" stroke="#162536" stroke-width="2"/><line x1="260.0" y1="194.8" x2="276.0" y2="194.8" stroke="#162536" stroke-width="2"/><line x1="260.0" y1="224.6" x2="276.0" y2="224.6" stroke="#162536" stroke-width="2"/><text x="268.0" y="194.1" text-anchor="middle" class="value">0.963</text><text x="229.2" y="724" text-anchor="middle" class="label">Trace F1</text><rect x="398.9" y="263.5" width="59.6" height="416.5" rx="5" fill="#8f6f32"/><line x1="428.7" y1="222.7" x2="428.7" y2="312.5" stroke="#162536" stroke-width="2"/><line x1="420.7" y1="222.7" x2="436.7" y2="222.7" stroke="#162536" stroke-width="2"/><line x1="420.7" y1="312.5" x2="436.7" y2="312.5" stroke="#162536" stroke-width="2"/><text x="428.7" y="249.5" text-anchor="middle" class="value">0.850</text><rect x="476.5" y="190.0" width="59.6" height="490.0" rx="5" fill="#24796f"/><line x1="506.3" y1="190.0" x2="506.3" y2="190.0" stroke="#162536" stroke-width="2"/><line x1="498.3" y1="190.0" x2="514.3" y2="190.0" stroke="#162536" stroke-width="2"/><line x1="498.3" y1="190.0" x2="514.3" y2="190.0" stroke="#162536" stroke-width="2"/><text x="506.3" y="176.0" text-anchor="middle" class="value">1.000</text><text x="467.5" y="724" text-anchor="middle" class="label">FR→UC coverage</text><rect x="637.3" y="263.5" width="59.6" height="416.5" rx="5" fill="#8f6f32"/><line x1="667.0" y1="222.7" x2="667.0" y2="312.5" stroke="#162536" stroke-width="2"/><line x1="659.0" y1="222.7" x2="675.0" y2="222.7" stroke="#162536" stroke-width="2"/><line x1="659.0" y1="312.5" x2="675.0" y2="312.5" stroke="#162536" stroke-width="2"/><text x="667.0" y="249.5" text-anchor="middle" class="value">0.850</text><rect x="714.8" y="190.0" width="59.6" height="490.0" rx="5" fill="#24796f"/><line x1="744.6" y1="190.0" x2="744.6" y2="190.0" stroke="#162536" stroke-width="2"/><line x1="736.6" y1="190.0" x2="752.6" y2="190.0" stroke="#162536" stroke-width="2"/><line x1="736.6" y1="190.0" x2="752.6" y2="190.0" stroke="#162536" stroke-width="2"/><text x="744.6" y="176.0" text-anchor="middle" class="value">1.000</text><text x="705.8" y="724" text-anchor="middle" class="label">FR→Activity coverage</text><rect x="875.6" y="299.0" width="59.6" height="381.0" rx="5" fill="#8f6f32"/><line x1="905.4" y1="258.3" x2="905.4" y2="344.9" stroke="#162536" stroke-width="2"/><line x1="897.4" y1="258.3" x2="913.4" y2="258.3" stroke="#162536" stroke-width="2"/><line x1="897.4" y1="344.9" x2="913.4" y2="344.9" stroke="#162536" stroke-width="2"/><text x="905.4" y="285.0" text-anchor="middle" class="value">0.778</text><rect x="953.2" y="190.0" width="59.6" height="490.0" rx="5" fill="#24796f"/><line x1="983.0" y1="190.0" x2="983.0" y2="190.0" stroke="#162536" stroke-width="2"/><line x1="975.0" y1="190.0" x2="991.0" y2="190.0" stroke="#162536" stroke-width="2"/><line x1="975.0" y1="190.0" x2="991.0" y2="190.0" stroke="#162536" stroke-width="2"/><text x="983.0" y="176.0" text-anchor="middle" class="value">1.000</text><text x="944.2" y="724" text-anchor="middle" class="label">Activity trace coverage</text><rect x="1113.9" y="663.7" width="59.6" height="16.3" rx="5" fill="#8f6f32"/><line x1="1143.7" y1="639.2" x2="1143.7" y2="680.0" stroke="#162536" stroke-width="2"/><line x1="1135.7" y1="639.2" x2="1151.7" y2="639.2" stroke="#162536" stroke-width="2"/><line x1="1135.7" y1="680.0" x2="1151.7" y2="680.0" stroke="#162536" stroke-width="2"/><text x="1143.7" y="649.7" text-anchor="middle" class="value">0.033</text><rect x="1191.5" y="190.0" width="59.6" height="490.0" rx="5" fill="#24796f"/><line x1="1221.3" y1="190.0" x2="1221.3" y2="190.0" stroke="#162536" stroke-width="2"/><line x1="1213.3" y1="190.0" x2="1229.3" y2="190.0" stroke="#162536" stroke-width="2"/><line x1="1213.3" y1="190.0" x2="1229.3" y2="190.0" stroke="#162536" stroke-width="2"/><text x="1221.3" y="176.0" text-anchor="middle" class="value">1.000</text><text x="1182.5" y="724" text-anchor="middle" class="label">Activity validity</text><rect x="1352.2" y="663.7" width="59.6" height="16.3" rx="5" fill="#8f6f32"/><line x1="1382.0" y1="639.2" x2="1382.0" y2="680.0" stroke="#162536" stroke-width="2"/><line x1="1374.0" y1="639.2" x2="1390.0" y2="639.2" stroke="#162536" stroke-width="2"/><line x1="1374.0" y1="680.0" x2="1390.0" y2="680.0" stroke="#162536" stroke-width="2"/><text x="1382.0" y="649.7" text-anchor="middle" class="value">0.033</text><rect x="1429.8" y="190.0" width="59.6" height="490.0" rx="5" fill="#24796f"/><line x1="1459.6" y1="190.0" x2="1459.6" y2="190.0" stroke="#162536" stroke-width="2"/><line x1="1451.6" y1="190.0" x2="1467.6" y2="190.0" stroke="#162536" stroke-width="2"/><line x1="1451.6" y1="190.0" x2="1467.6" y2="190.0" stroke="#162536" stroke-width="2"/><text x="1459.6" y="176.0" text-anchor="middle" class="value">1.000</text><text x="1420.8" y="724" text-anchor="middle" class="label">E2E success</text><line x1="70" y1="770" x2="1530" y2="770" stroke="#c9d2dc"/><text x="70" y="816" class="take">Главный эффект полного графа — 60/60 E2E против 2/60 и полная трассировка Activity.</text><text x="70" y="854" class="note">Среднее по 20 проектам; три повтора усреднены внутри проекта; планки — кластерный bootstrap 95% CI. Технический провал остаётся в знаменателе и получает 0.</text></svg>